<?xml version="1.0" encoding="UTF-8"?>
<svg width="48px" height="48px" viewBox="0 0 48 48" version="1.1" xmlns="http://www.w3.org/2000/svg" xmlns:xlink="http://www.w3.org/1999/xlink">
    <!-- Generator: Sketch 46.2 (44496) - http://www.bohemiancoding.com/sketch -->
    <title>Logo/Dark</title>
    <desc>Created with Sketch.</desc>
    <defs></defs>
    <g id="Symbols" stroke="none" stroke-width="1" fill="none" fill-rule="evenodd">
        <g id="Logo/Dark">
            <g id="Mark">
                <rect id="Container" fill="#101E45" x="0" y="0" width="48" height="48"></rect>
                <path d="M22.8647863,28.9701493 C22.8309413,29.2577129 22.7717133,29.4437807 22.6871007,29.5283582 C22.0101998,30.2049785 21.1810086,30.6363175 20.1995022,30.8223881 C19.8948968,30.8731346 19.531068,30.8985075 19.1080049,30.8985075 C17.720358,30.8985075 16.8065555,30.6532363 16.3665699,30.1626866 C16.2481122,30.0273625 16.1888842,29.790549 16.1888842,29.4522388 C16.1888842,28.5726324 16.5019462,27.4223952 17.1280796,26.0014925 C17.2126922,25.815422 17.1957699,25.7223881 17.0773123,25.7223881 C17.0265447,25.7223881 16.9673168,25.7731338 16.8996267,25.8746269 C16.2565708,26.9572193 15.4019962,27.9805922 14.3358772,28.9447761 C12.8297726,30.3149322 11.4336854,31 10.1475736,31 C9.43682763,31 8.77685912,30.797017 8.16764827,30.3910448 C7.3892122,29.866664 7,28.9701556 7,27.7014925 C7,25.4009835 8.15917546,22.8214073 10.4775612,19.9626866 C11.9159757,18.1865583 13.7351196,16.7149312 15.9350477,15.5477612 C17.8811378,14.5159152 19.5310591,14 20.884861,14 C21.3079241,14 21.6632917,14.1945254 21.9509746,14.5835821 C22.18789,14.9218922 22.3063459,15.1333329 22.3063459,15.2179104 C22.3063459,15.437812 21.9679005,15.5815917 21.2909995,15.6492537 C18.7018535,15.9199019 15.8758344,17.7805798 12.8128577,21.2313433 C12.4913298,21.6034844 12.1740372,22.0179082 11.8609705,22.4746269 C11.5479038,22.9313456 11.2390724,23.4388032 10.934467,23.9970149 C10.1729535,25.401002 9.79220239,26.5174088 9.79220239,27.3462687 C9.79220239,28.124382 10.1221867,28.623382 10.7821651,28.8432836 C10.9344678,28.9109456 11.1206127,28.9447761 11.3406055,28.9447761 C12.7282525,28.9447761 14.5473964,27.2109626 16.798092,23.7432836 C17.2211551,23.1004943 17.7161315,22.2505028 18.283036,21.1932836 C18.8499406,20.1360644 19.5141397,18.8631915 20.2756532,17.3746269 C20.5294911,16.8502461 21.0456203,16.6472631 21.8240563,16.7656716 C22.3486546,16.8333337 22.6109498,17.0616896 22.6109498,17.4507463 C22.6109498,17.6029858 22.5601829,17.780596 22.4586478,17.9835821 C22.3063451,18.3218922 22.0905862,18.8124346 21.8113645,19.4552239 C21.5321429,20.0980132 21.1979281,20.9014877 20.80871,21.8656716 C20.3010343,23.1343347 19.8822082,24.2169109 19.5522189,25.1134328 C19.2222297,26.0099547 18.9726263,26.728853 18.803401,27.2701493 C18.6341758,27.8452765 18.5495644,28.3019884 18.5495644,28.6402985 C18.5495644,28.9786087 18.6595592,29.2069646 18.879552,29.3253731 C18.9980097,29.3930352 19.2856883,29.4522386 19.7425964,29.5029851 C20.1318144,29.5368161 20.5971768,29.4014941 21.1386976,29.0970149 C21.6971409,28.8094513 22.1625033,28.4119428 22.5347988,27.9044776 C22.6194114,27.8029846 22.6871005,27.8283574 22.737868,27.980597 C22.8563257,28.2681606 22.8986314,28.5980081 22.8647863,28.9701493 Z M40.9887182,28.9701493 C40.9548732,29.2577129 40.8956452,29.4437807 40.8110326,29.5283582 C40.1002866,30.2388095 39.2710954,30.6701485 38.3234341,30.8223881 C37.7819134,30.9238811 37.257323,30.9746269 36.7496473,30.9746269 C36.0050563,30.9746269 35.3704712,30.881593 34.845873,30.6955224 C33.9151342,30.3402967 33.4497718,29.7651781 33.4497718,28.9701493 C33.4497718,28.496515 33.6613001,27.6845829 34.0843632,26.5343284 C34.270511,26.0437786 34.4481948,25.5997532 34.61742,25.2022388 C34.7866453,24.8047244 34.9474068,24.4537329 35.0997096,24.1492537 C35.3197024,23.726366 35.4296971,23.4218915 35.4296971,23.2358209 C35.4296971,22.9820883 35.3027801,22.8552239 35.0489422,22.8552239 C34.8120269,22.8552239 34.4651204,23.1427832 34.0082123,23.7179104 C33.7036068,24.1069671 33.369392,24.563679 33.0055578,25.0880597 C32.6417235,25.6124404 32.2398196,26.2129319 31.799834,26.8895522 C31.2583132,27.7184121 30.8267954,28.4203951 30.5052674,28.9955224 C30.1837395,29.5706496 29.9722111,30.0189039 29.870676,30.3402985 C29.7352958,30.7293552 29.2530111,30.9238806 28.4238075,30.9238806 C27.4930687,30.9238806 27.0953953,30.7293552 27.2307755,30.3402985 C27.6199936,29.3084526 28.0430503,28.2216475 28.4999584,27.0798507 C28.9568666,25.938054 29.4306901,24.7243845 29.9214433,23.438806 C30.0906685,22.9651718 30.0145183,22.7029853 29.6929904,22.6522388 C29.3376174,22.6014923 28.8553327,22.9397974 28.2461219,23.6671642 C27.7722912,24.2084604 27.0361725,25.3925282 26.0377436,27.219403 C25.1408499,28.8263762 24.582415,29.8835796 24.3624222,30.3910448 C24.227042,30.7293549 23.7532184,30.8985075 22.9409373,30.8985075 C22.1286562,30.8985075 21.7648274,30.6955244 21.84944,30.2895522 C22.2555806,28.8517341 22.6744067,27.3505053 23.1059311,25.7858209 C23.5374554,24.2211365 23.9901261,22.576128 24.4639568,20.8507463 C24.5824145,20.343281 24.9970101,20.0895522 25.707756,20.0895522 C26.0462065,20.0895522 26.3423462,20.1487556 26.5961841,20.2671642 C26.9684796,20.4194037 27.1546246,20.6223868 27.1546246,20.8761194 C27.1546246,20.994528 27.12078,21.1129347 27.0530899,21.2313433 C26.8838647,21.5527379 26.6807975,22.0432803 26.4438821,22.7029851 C26.1561992,23.5149294 26.0123599,24.0054718 26.0123599,24.1746269 C26.0123599,24.4283595 26.1561992,24.3353256 26.4438821,23.8955224 C27.9330642,21.6457599 29.3376126,20.5208955 30.6575694,20.5208955 C30.7252595,20.5208955 30.7929485,20.5251243 30.8606386,20.5335821 C30.9283287,20.5420398 31.0044789,20.5547263 31.0890916,20.5716418 C31.9352177,20.7238814 32.3582745,21.1975085 32.3582745,21.9925373 C32.3582745,22.516918 32.1975129,23.1343248 31.875985,23.8447761 C31.7406048,24.1323397 31.7152214,24.2761194 31.799834,24.2761194 C31.8167565,24.2761194 32.0790517,23.9547296 32.5867274,23.3119403 C33.1959382,22.533827 33.7543731,21.9333354 34.2620488,21.5104478 C35.0574074,20.8676585 35.7766039,20.5462687 36.4196598,20.5462687 C36.7750328,20.5462687 37.1134782,20.6308449 37.4350061,20.8 C37.9765268,21.0537326 38.2472832,21.5104445 38.2472832,22.1701493 C38.2472832,22.4577129 38.1965164,22.7791027 38.0949812,23.1343284 C37.9426785,23.7263711 37.6126942,24.6905406 37.1050185,26.0268657 C36.8342582,26.7542325 36.6311909,27.3039782 36.4958107,27.6761194 C36.3604306,28.0482606 36.2842803,28.2512436 36.2673578,28.2850746 C36.2165903,28.4711452 36.1912069,28.6149249 36.1912069,28.7164179 C36.1912069,28.9701505 36.3096627,29.1646759 36.5465781,29.3 C36.868106,29.5029861 37.3588518,29.5875624 38.0188302,29.5537313 C38.3403582,29.5368158 38.7549538,29.3845786 39.2626295,29.0970149 C39.8718403,28.7587048 40.3372027,28.3611963 40.6587307,27.9044776 C40.7433433,27.8029846 40.8110324,27.8283574 40.8617999,27.980597 C40.9802576,28.2681606 41.0225633,28.5980081 40.9887182,28.9701493 Z" fill="#FFFFFF"></path>
            </g>
        </g>
    </g>
</svg>